<?xml version="1.0" standalone="no"?>
<!DOCTYPE svg PUBLIC "-//W3C//DTD SVG 20010904//EN"
 "http://www.w3.org/TR/2001/REC-SVG-20010904/DTD/svg10.dtd">
<svg version="1.0" xmlns="http://www.w3.org/2000/svg"
 width="256.000000pt" height="256.000000pt" viewBox="0 0 256.000000 256.000000"
 preserveAspectRatio="xMidYMid meet">

<g transform="translate(0.000000,256.000000) scale(0.100000,-0.100000)"
fill="#000000" stroke="none">
<path d="M745 2375 c-21 -20 -25 -34 -25 -80 l0 -55 -176 0 c-110 0 -192 -5
-218 -12 -55 -16 -138 -99 -154 -154 -17 -59 -17 -1689 0 -1748 16 -55 99
-138 154 -154 31 -9 267 -12 956 -12 1038 0 975 -5 1051 80 24 26 49 66 55 88
17 56 17 1688 0 1744 -6 22 -31 62 -55 88 -64 71 -99 80 -315 80 l-178 0 0 55
c0 67 -29 105 -80 105 -51 0 -80 -38 -80 -105 l0 -55 -400 0 -400 0 0 55 c0
67 -29 105 -80 105 -19 0 -40 -9 -55 -25z m1470 -320 c24 -23 25 -29 25 -160
l0 -135 -960 0 -960 0 0 135 c0 131 1 137 25 160 l24 25 911 0 911 0 24 -25z
m25 -1070 l0 -616 -25 -24 -24 -25 -911 0 -911 0 -24 25 -25 24 0 616 0 615
960 0 960 0 0 -615z"/>
<path d="M1388 1135 l-263 -225 -100 99 c-55 55 -110 102 -123 106 -54 16
-112 -42 -99 -97 4 -13 69 -85 145 -161 119 -118 143 -137 170 -137 27 0 75
37 314 241 156 133 293 252 306 266 30 32 29 77 -3 108 -50 51 -61 45 -347
-200z"/>
</g>
</svg>
