<?xml version="1.0" standalone="no"?>
<!DOCTYPE svg PUBLIC "-//W3C//DTD SVG 20010904//EN"
 "http://www.w3.org/TR/2001/REC-SVG-20010904/DTD/svg10.dtd">
<svg version="1.0" xmlns="http://www.w3.org/2000/svg"
 width="256.000000pt" height="256.000000pt" viewBox="0 0 256.000000 256.000000"
 preserveAspectRatio="xMidYMid meet">

<g transform="translate(0.000000,256.000000) scale(0.100000,-0.100000)"
fill="#000000" stroke="none">
<path d="M1186 2544 c-34 -11 -64 -31 -101 -67 -58 -59 -85 -121 -85 -201 l0
-51 -78 -37 c-165 -81 -298 -211 -378 -373 -79 -160 -86 -204 -93 -575 l-6
-324 -60 -11 c-78 -14 -130 -40 -178 -88 -135 -135 -96 -364 77 -455 l51 -27
287 -3 286 -3 12 -50 c16 -67 79 -161 137 -203 57 -42 156 -76 223 -76 67 0
166 34 223 76 58 42 121 136 137 203 l12 50 286 3 287 3 51 27 c174 92 213
319 77 455 -48 48 -100 74 -178 88 l-60 11 -6 309 c-7 336 -14 391 -69 525
-77 187 -226 348 -405 436 l-75 37 0 52 c0 80 -26 143 -85 202 -79 78 -177
101 -289 67z m164 -174 c27 -19 58 -85 47 -97 -8 -7 -226 -8 -233 0 -12 12 18
77 44 96 36 27 105 28 142 1z m75 -282 c72 -15 181 -68 250 -121 106 -80 187
-196 232 -332 26 -79 27 -86 32 -415 7 -371 6 -367 75 -428 38 -33 90 -52 145
-52 25 0 42 -9 72 -39 44 -43 51 -88 24 -141 -33 -63 14 -60 -975 -60 -989 0
-942 -3 -975 60 -27 53 -20 98 24 141 30 30 47 39 72 39 87 0 166 50 200 125
17 36 19 72 19 345 0 350 7 399 71 528 134 272 434 415 734 350z m55 -1768 c0
-37 -74 -121 -123 -139 -36 -14 -118 -14 -154 0 -49 18 -123 102 -123 139 0 6
67 10 200 10 133 0 200 -4 200 -10z"/>
</g>
</svg>
